<?xml version="1.0" standalone="no"?>
<!DOCTYPE svg PUBLIC "-//W3C//DTD SVG 20010904//EN"
 "http://www.w3.org/TR/2001/REC-SVG-20010904/DTD/svg10.dtd">
<svg version="1.0" xmlns="http://www.w3.org/2000/svg"
 width="320.000000pt" height="320.000000pt" viewBox="0 0 320.000000 320.000000"
 preserveAspectRatio="xMidYMid meet">
<metadata>
Created by potrace 1.11, written by Peter Selinger 2001-2013
</metadata>
<g transform="translate(0.000000,320.000000) scale(0.100000,-0.100000)"
fill="#000000" stroke="none">
<path d="M1416 3191 c-5 -7 -34 -13 -136 -27 -19 -3 -63 -14 -97 -25 -34 -11
-71 -21 -82 -22 -12 -1 -21 -5 -21 -9 0 -4 -11 -8 -24 -8 -13 0 -26 -7 -30
-15 -3 -8 -12 -12 -20 -9 -9 3 -27 -4 -42 -15 -15 -12 -32 -21 -39 -21 -16 0
-112 -48 -144 -72 -13 -10 -28 -15 -34 -11 -6 3 -7 1 -3 -5 4 -7 1 -12 -6 -12
-7 0 -24 -10 -38 -23 -14 -13 -33 -26 -42 -30 -10 -3 -18 -14 -18 -22 0 -9 -4
-13 -10 -10 -5 3 -29 -12 -53 -35 -24 -22 -49 -40 -56 -40 -6 0 -10 -6 -8 -12
1 -7 -4 -12 -11 -10 -8 1 -16 -7 -19 -18 -3 -11 -11 -20 -18 -20 -13 0 -30
-28 -26 -43 1 -5 -3 -6 -8 -3 -5 3 -19 -8 -32 -25 -13 -17 -34 -41 -46 -54
-12 -13 -19 -26 -16 -29 4 -3 1 -6 -5 -6 -5 0 -21 -17 -33 -37 -13 -21 -28
-41 -33 -45 -7 -5 -7 -8 -1 -8 6 0 2 -5 -7 -11 -10 -5 -18 -16 -18 -24 0 -7
-6 -20 -12 -27 -19 -21 -65 -109 -72 -140 -3 -16 -11 -28 -16 -28 -6 0 -10 -7
-10 -15 0 -9 -8 -30 -17 -48 -16 -30 -19 -38 -26 -69 -1 -7 -6 -19 -10 -25 -5
-7 -6 -13 -3 -13 3 0 -2 -19 -10 -42 -17 -47 -21 -62 -30 -123 -3 -22 -8 -53
-11 -70 -2 -16 -5 -36 -5 -42 -1 -7 -5 -13 -10 -13 -4 0 -8 -83 -8 -185 0
-122 4 -185 10 -185 6 0 10 -6 9 -12 -2 -7 1 -29 5 -48 5 -19 10 -48 11 -65 3
-41 16 -87 28 -102 5 -7 7 -13 4 -13 -4 0 0 -18 8 -40 8 -22 12 -40 9 -40 -2
0 6 -19 18 -43 12 -23 23 -48 24 -55 1 -6 12 -33 25 -59 12 -25 22 -52 22 -60
0 -7 4 -13 9 -13 4 0 8 -7 8 -15 0 -8 5 -15 10 -15 6 0 10 -6 10 -14 0 -8 3
-16 8 -18 4 -1 18 -23 31 -48 14 -25 30 -50 35 -57 24 -27 32 -38 34 -45 9
-28 16 -38 34 -44 11 -3 17 -8 14 -11 -11 -11 211 -233 234 -233 5 0 10 -7 10
-16 0 -8 4 -12 10 -9 5 3 10 2 10 -4 0 -5 8 -12 19 -16 10 -3 31 -17 47 -30
16 -14 35 -25 42 -25 6 0 12 -4 12 -10 0 -5 7 -10 15 -10 8 0 15 -4 15 -10 0
-5 7 -10 15 -10 8 0 15 -4 15 -10 0 -5 7 -10 16 -10 9 0 28 -8 42 -19 15 -10
40 -21 57 -25 16 -4 32 -11 35 -15 4 -6 126 -55 140 -56 3 0 11 -4 18 -8 6 -5
12 -6 12 -3 0 3 19 -2 43 -10 23 -9 51 -17 62 -19 11 -2 34 -7 50 -10 17 -3
53 -8 80 -12 28 -3 52 -9 53 -14 5 -11 352 -12 352 -1 0 5 16 9 35 10 20 1 40
4 45 7 6 3 31 8 57 11 27 3 77 15 113 27 36 11 74 22 84 24 28 5 183 71 234
100 23 14 42 22 42 19 0 -3 9 3 20 14 11 11 26 20 34 20 8 0 16 4 18 8 2 5 26
23 53 42 64 43 146 110 163 133 7 9 20 17 29 17 9 0 14 3 10 6 -3 3 12 23 34
43 21 21 36 41 32 44 -3 4 -1 7 6 7 7 0 19 7 27 15 9 8 12 15 8 15 -4 0 1 8
12 19 31 30 54 60 54 71 0 6 4 10 9 10 8 0 101 144 101 156 0 3 8 18 19 32 10
15 24 44 30 64 7 21 17 38 23 38 6 0 9 3 5 6 -3 4 0 19 8 34 8 15 11 30 8 34
-4 3 0 6 7 6 7 0 11 3 7 6 -3 4 0 19 9 35 8 16 12 29 9 29 -2 0 4 24 15 53 10
28 21 66 24 82 3 17 7 40 10 53 3 13 8 50 11 83 4 33 9 70 13 82 10 35 14 257
5 257 -5 0 -9 8 -9 18 -3 62 -29 230 -41 262 -4 8 -7 17 -8 20 -6 20 -29 96
-31 103 -1 4 -3 9 -4 12 -1 3 -4 8 -5 13 -1 4 -8 21 -14 39 -7 18 -12 35 -12
38 1 3 -5 13 -14 21 -8 9 -15 22 -15 30 0 8 -11 32 -25 52 -14 20 -25 43 -25
50 0 7 -6 20 -12 27 -31 34 -36 43 -31 49 4 3 1 6 -6 6 -7 0 -10 4 -7 9 4 5 2
11 -2 13 -4 1 -23 24 -41 51 -17 26 -37 47 -43 47 -6 0 -9 3 -6 6 8 8 -182
214 -198 214 -2 0 -17 14 -34 31 -16 18 -30 29 -30 25 0 -3 -8 2 -18 12 -30
27 -55 46 -85 61 -15 8 -27 18 -27 23 0 4 -9 8 -20 8 -11 0 -20 4 -20 8 0 5
-22 19 -50 31 -27 12 -50 27 -50 32 0 5 -9 9 -20 9 -11 0 -37 9 -57 20 -21 11
-43 20 -50 20 -7 0 -13 5 -13 12 0 6 -3 9 -6 6 -3 -4 -21 0 -40 8 -19 8 -37
14 -41 14 -14 1 -88 22 -98 28 -5 4 -19 8 -30 9 -11 2 -33 5 -50 8 -16 3 -48
8 -70 11 -22 3 -44 10 -50 15 -12 11 -362 12 -369 0z"/>
</g>
</svg>
